<svg width="147" height="135" viewBox="0 0 147 135" fill="none" xmlns="http://www.w3.org/2000/svg">
<rect width="147" height="135" fill="white"/>
<g opacity="0.25">
<path d="M35.0434 81.0006H16.2553C11.7673 81.0006 7.70433 79.4908 4.76135 77.0468C1.81838 74.6027 0 71.2279 0 67.4989C0 60.044 7.27798 53.9986 16.2553 53.9986H17.346C17.4915 53.9986 17.6385 53.9971 17.7826 53.9941C18.6973 59.423 20.6971 64.6122 23.6626 69.2521C26.6282 73.8921 30.4987 77.8877 35.0434 81.0006Z" fill="#CCD2D6"/>
<path d="M58.2383 14.6387C52.3774 14.6367 46.6244 16.2144 41.5858 19.2055C36.5472 22.1967 32.4095 26.4905 29.6089 31.6345C32.0991 34.0065 33.6059 37.1054 33.6059 40.4996C33.6059 45.3155 30.5674 49.5424 25.9951 51.9319C28.2903 67.6691 41.8528 79.7566 58.2383 79.7566C76.2385 79.7566 90.8252 65.1783 90.8252 47.1985C90.8252 29.2186 76.2387 14.6402 58.2383 14.6402V14.6387ZM73.4986 64.3363C73.4984 64.8769 73.2833 65.3953 72.9007 65.7776C72.5181 66.1598 71.9993 66.3747 71.4582 66.375H45.0217C44.4802 66.3753 43.9607 66.1607 43.5775 65.7784C43.1944 65.3961 42.9789 64.8774 42.9784 64.3363V30.0557C42.9789 29.5146 43.1944 28.9959 43.5775 28.6136C43.9607 28.2313 44.4802 28.0167 45.0217 28.017H63.3232C63.8644 28.0186 64.3831 28.2334 64.7667 28.6148L72.9017 36.7426C73.1836 37.0242 73.3768 37.3821 73.4575 37.7721C73.4863 37.9073 73.5006 38.0451 73.5001 38.1833V64.3353L73.4986 64.3363Z" fill="#CCD2D6"/>
<path d="M124.885 103.983C129.763 103.983 133.717 100.032 133.717 95.1589C133.717 90.2856 129.763 86.335 124.885 86.335C120.008 86.335 116.054 90.2856 116.054 95.1589C116.054 100.032 120.008 103.983 124.885 103.983Z" fill="#CCD2D6"/>
<path d="M20.1038 32.0791C18.1932 36.8908 17.215 42.0213 17.2211 47.1977C17.2211 47.8881 17.2382 48.5744 17.2726 49.2568C15.2962 48.5809 13.6235 47.2272 12.5514 45.4359C11.4794 43.6445 11.0774 41.5316 11.4169 39.4723C11.7563 37.4129 12.8152 35.5404 14.4056 34.1871C15.9959 32.8339 18.0148 32.0875 20.1038 32.0806V32.0791Z" fill="#CCD2D6"/>
<path d="M28.9634 40.9035C28.9647 42.2251 28.6682 43.53 28.0959 44.7214C27.5236 45.9128 26.6901 46.9602 25.6574 47.7859C25.6529 47.5906 25.6516 47.3938 25.6516 47.1985C25.6475 43.4329 26.2986 39.6952 27.5757 36.1523C28.4848 37.5709 28.9665 39.2206 28.9636 40.905L28.9634 40.9035Z" fill="#CCD2D6"/>
</g>
<g opacity="0.5">
<path d="M58.24 6.21582C35.5867 6.21582 17.2226 24.5644 17.2226 47.197C17.2226 69.8296 35.5873 88.1782 58.24 88.1782C69.1184 88.1782 79.5514 83.8605 87.2436 76.175C94.9359 68.4896 99.2573 58.0659 99.2574 47.197C99.2574 24.5638 80.8927 6.21582 58.24 6.21582ZM58.24 79.7551C40.2427 79.7551 25.6531 65.1783 25.6531 47.197C25.6531 29.2157 40.2427 14.6389 58.24 14.6389C76.2372 14.6389 90.8269 29.2157 90.8269 47.197C90.8269 65.1783 76.2387 79.7551 58.24 79.7551Z" fill="#CCD2D6"/>
</g>
<path d="M58.24 88.6201C50.0401 88.6204 42.0242 86.1912 35.2062 81.6398C28.3881 77.0883 23.0741 70.619 19.9361 63.05C16.798 55.481 15.977 47.1522 17.5768 39.117C19.1766 31.0818 23.1254 23.701 28.9237 17.908C33.2385 13.6027 38.4507 10.3014 44.1888 8.23942C49.927 6.1774 56.0497 5.40547 62.1207 5.97863C68.1916 6.55179 74.0613 8.45594 79.3112 11.5553C84.5612 14.6547 89.0622 18.8731 92.4934 23.9097C95.9247 28.9463 98.2016 34.6771 99.162 40.6937C100.122 46.7103 99.7425 52.8644 98.0495 58.7175C96.3565 64.5706 93.392 69.9785 89.3674 74.5557C85.3428 79.1329 80.3571 82.7667 74.7658 85.1982C69.5523 87.4669 63.9251 88.632 58.2386 88.6203L58.24 88.6201ZM58.24 6.65777C35.8665 6.65777 17.6641 24.8447 17.6641 47.1978C17.6641 69.5508 35.8671 87.7378 58.24 87.7378C69.0013 87.7375 79.3217 83.4663 86.9311 75.8636C94.5405 68.2609 98.8155 57.9496 98.8158 47.1978C98.8158 24.8441 80.6128 6.65777 58.24 6.65777ZM58.24 80.1971C50.5991 80.1968 43.1947 77.5496 37.2884 72.7064C31.3821 67.8632 27.3393 61.1238 25.8488 53.6363C24.3582 46.1489 25.5123 38.3767 29.1142 31.6441C32.7161 24.9115 38.5431 19.6349 45.6024 16.7135C52.6616 13.7921 60.5163 13.4065 67.8281 15.6225C75.14 17.8386 81.4566 22.519 85.7017 28.8665C89.9468 35.214 91.8578 42.8357 91.109 50.433C90.3602 58.0304 86.998 65.1333 81.5953 70.5316C78.5355 73.6058 74.8958 76.043 70.8868 77.7021C66.8778 79.3612 62.5792 80.2092 58.24 80.1971ZM58.24 15.0807C40.5146 15.0807 26.094 29.4887 26.094 47.1982C26.094 64.9077 40.5152 79.3159 58.24 79.3159C75.9647 79.3159 90.3859 64.9079 90.3859 47.1984C90.3859 29.4888 75.9653 15.0808 58.24 15.0808V15.0807Z" fill="#CCD2D6"/>
<g opacity="0.75">
<path d="M115.385 110.784C119.355 120.102 110.065 127.709 100.932 118.922C93.6699 111.939 84.4207 94.8033 80.9309 88.0663C81.7323 87.9029 82.4858 87.5594 83.1345 87.0617L88.1471 83.2196C89.0482 82.5315 89.7074 81.5755 90.0301 80.4893C95.5867 85.9528 111.774 102.304 115.384 110.784H115.385Z" fill="#CCD2D6"/>
</g>
<path d="M109.071 123.252C106.598 123.252 103.664 122.165 100.625 119.239C93.3554 112.248 84.1548 95.251 80.5371 88.2688L80.2685 87.7504L80.8418 87.6344C81.5778 87.486 82.2696 87.1696 82.863 86.71L87.8757 82.8679C88.7036 82.2371 89.3089 81.3593 89.6038 80.3617L89.8127 79.6582L90.336 80.1723C96.7967 86.5241 112.208 102.205 115.787 110.609C117.699 115.093 116.746 119.646 113.418 121.937C112.135 122.806 110.619 123.263 109.07 123.25L109.071 123.252ZM81.5777 88.3571C85.3379 95.5772 94.2269 111.862 101.237 118.606C105.996 123.183 110.393 122.954 112.92 121.215C115.394 119.511 116.99 115.679 114.979 110.957C111.474 102.723 95.7292 86.7379 90.208 81.2831C89.8144 82.1848 89.1971 82.9713 88.4145 83.5683L83.4019 87.4105C82.8552 87.8321 82.2374 88.1527 81.5777 88.3571Z" fill="#CCD2D6"/>
<path d="M90.0288 80.4898C89.706 81.5755 89.0466 82.5309 88.1456 83.2183L83.1315 87.0604C82.4843 87.5599 81.7309 87.9042 80.9295 88.0665C79.9378 88.2695 78.909 88.1895 77.9606 87.8358C77.0123 87.482 76.1828 86.8688 75.5668 86.0662L74.5879 84.7943C79.8768 82.4912 84.6214 79.1019 88.5132 74.8467L89.1409 75.6648C89.6609 76.3415 90.0124 77.132 90.1662 77.9712C90.3201 78.8103 90.272 79.6741 90.0258 80.491L90.0288 80.4898Z" fill="#CCD2D6"/>
<path d="M87.6796 95.6193C87.6041 95.6193 87.5299 95.5999 87.464 95.5632C87.3982 95.5264 87.3428 95.4734 87.3032 95.4092C86.3612 93.8742 85.5338 92.272 84.8278 90.6154C84.782 90.5078 84.7807 90.3865 84.8244 90.2781C84.8681 90.1697 84.9531 90.083 85.0607 90.0372C85.1683 89.9914 85.2897 89.9902 85.3982 90.0338C85.5067 90.0774 85.5935 90.1624 85.6393 90.2699C86.3287 91.8869 87.1364 93.4509 88.056 94.9492C88.097 95.016 88.1195 95.0925 88.1211 95.1709C88.1226 95.2493 88.1032 95.3267 88.0649 95.395C88.0265 95.4634 87.9706 95.5203 87.9029 95.5599C87.8351 95.5995 87.7581 95.6203 87.6796 95.6201V95.6193Z" fill="#CCD2D6"/>
<path d="M101.324 113.481C101.262 113.481 101.201 113.468 101.144 113.442C101.087 113.417 101.036 113.38 100.995 113.334C96.6334 108.455 92.6924 103.112 88.8808 97.9435C88.8465 97.8969 88.8217 97.844 88.8078 97.7878C88.794 97.7317 88.7914 97.6734 88.8001 97.6162C88.8088 97.559 88.8287 97.5042 88.8586 97.4547C88.8886 97.4052 88.928 97.3621 88.9746 97.3278C89.0212 97.2936 89.0742 97.2688 89.1304 97.255C89.1866 97.2411 89.2449 97.2385 89.3021 97.2472C89.3594 97.2559 89.4143 97.2758 89.4638 97.3057C89.5134 97.3356 89.5565 97.375 89.5908 97.4216C93.3893 102.574 97.3186 107.901 101.652 112.749C101.709 112.812 101.746 112.891 101.76 112.975C101.773 113.059 101.761 113.145 101.727 113.223C101.692 113.301 101.635 113.367 101.564 113.413C101.492 113.459 101.409 113.484 101.323 113.484L101.324 113.481Z" fill="#CCD2D6"/>
<path d="M105.405 118.219C105.291 118.22 105.182 118.176 105.101 118.097C104.21 117.25 103.375 116.344 102.603 115.388C102.567 115.343 102.54 115.291 102.523 115.235C102.507 115.18 102.502 115.122 102.508 115.064C102.514 115.006 102.531 114.951 102.559 114.9C102.587 114.849 102.624 114.804 102.669 114.768C102.714 114.731 102.766 114.704 102.822 114.688C102.877 114.672 102.935 114.666 102.993 114.672C103.051 114.679 103.107 114.696 103.157 114.724C103.208 114.751 103.253 114.789 103.29 114.834C104.038 115.76 104.846 116.637 105.709 117.458C105.773 117.518 105.818 117.597 105.837 117.683C105.856 117.769 105.848 117.858 105.816 117.94C105.783 118.022 105.727 118.092 105.654 118.142C105.581 118.191 105.495 118.217 105.406 118.217L105.405 118.219Z" fill="#CCD2D6"/>
<path d="M87.3283 88.1917C87.2344 88.1914 87.143 88.1612 87.0675 88.1055C86.9919 88.0498 86.9361 87.9715 86.908 87.882C86.88 87.7924 86.8813 87.6963 86.9117 87.6075C86.9421 87.5188 87 87.442 87.077 87.3883C88.7467 86.2263 90.3109 84.92 91.7517 83.4845C91.8343 83.4019 91.9464 83.3555 92.0633 83.3555C92.1802 83.3555 92.2923 83.4019 92.375 83.4845C92.4577 83.567 92.5041 83.6791 92.5041 83.7958C92.5041 83.9126 92.4577 84.0247 92.375 84.1072C90.8977 85.5796 89.2936 86.9193 87.5814 88.1108C87.5076 88.1622 87.4199 88.1899 87.33 88.1902L87.3283 88.1917Z" fill="#CCD2D6"/>
<g opacity="0.5">
<path d="M73.5006 38.1849V64.338C73.5006 64.8787 73.2856 65.3972 72.903 65.7796C72.5203 66.1619 72.0013 66.3767 71.4601 66.3767H45.0232C44.7551 66.3768 44.4897 66.3241 44.242 66.2217C43.9943 66.1193 43.7693 65.9692 43.5796 65.7799C43.39 65.5906 43.2396 65.3658 43.137 65.1184C43.0343 64.871 42.9815 64.6058 42.9814 64.338V30.0572C42.9815 29.7894 43.0343 29.5242 43.137 29.2768C43.2396 29.0294 43.39 28.8046 43.5796 28.6153C43.7693 28.426 43.9943 28.2759 44.242 28.1735C44.4897 28.0711 44.7551 28.0184 45.0232 28.0186H63.3247C63.6166 28.018 63.905 28.0811 64.1699 28.2036C64.3924 28.3044 64.595 28.4442 64.7682 28.6163L72.9037 36.7438C73.0934 36.933 73.2438 37.1579 73.3463 37.4054C73.4487 37.6529 73.5012 37.9182 73.5006 38.1861V38.1849Z" fill="#CCD2D6"/>
</g>
<path d="M71.4582 66.8174H45.0218C44.3637 66.8171 43.7326 66.5558 43.267 66.091C42.8015 65.6262 42.5397 64.9957 42.5389 64.3382V30.0573C42.5399 29.3998 42.8018 28.7696 43.2673 28.3048C43.7328 27.84 44.3638 27.5787 45.0218 27.5781H63.3233C63.9802 27.579 64.61 27.8393 65.0756 28.3021L73.2121 36.4315C73.5553 36.7739 73.7904 37.2093 73.8883 37.6839C73.9228 37.8481 73.9401 38.0155 73.9398 38.1832V64.3368C73.9391 64.9942 73.6775 65.6244 73.2123 66.0892C72.7471 66.554 72.1163 66.8154 71.4584 66.816L71.4582 66.8174ZM45.0218 28.4593C44.5976 28.4595 44.1907 28.6278 43.8906 28.9274C43.5905 29.227 43.4216 29.6333 43.421 30.0572V64.3383C43.4218 64.7621 43.5908 65.1683 43.8909 65.4679C44.1909 65.7674 44.5977 65.9358 45.0218 65.9362H71.4582C71.8822 65.9357 72.2887 65.7672 72.5886 65.4677C72.8884 65.1681 73.057 64.762 73.0575 64.3383V38.185C73.058 38.0775 73.0472 37.9702 73.0251 37.8649C72.9627 37.5576 72.8108 37.2756 72.5885 37.0543L64.4535 28.9264C64.3187 28.7922 64.1608 28.6832 63.9874 28.6048C63.7793 28.5084 63.5525 28.4588 63.323 28.4595H45.0218V28.4593Z" fill="#CCD2D6"/>
<g opacity="0.75">
<path d="M73.4574 37.7737H65.4578C65.2885 37.7737 65.1208 37.7405 64.9644 37.6757C64.808 37.611 64.6658 37.5161 64.5461 37.3965C64.4264 37.2769 64.3314 37.1349 64.2666 36.9786C64.2019 36.8223 64.1685 36.6548 64.1686 36.4856V28.2021C64.391 28.303 64.5937 28.4427 64.7668 28.6149L72.9019 36.7427C73.184 37.0246 73.3772 37.3831 73.4574 37.7737Z" fill="#CCD2D6"/>
</g>
<g opacity="0.75">
<path d="M64.9807 52.6007C65.1671 52.7875 65.2718 53.0405 65.2718 53.3043C65.2718 53.568 65.1671 53.821 64.9807 54.0078L63.5578 55.4324C63.3703 55.6187 63.1166 55.7233 62.8522 55.7233C62.5877 55.7233 62.334 55.6187 62.1465 55.4324L58.2334 51.5198C58.0465 51.3335 57.7932 51.2289 57.5292 51.2289C57.2652 51.2289 57.012 51.3335 56.8251 51.5198L52.912 55.4294C52.725 55.6157 52.4718 55.7202 52.2078 55.7202C51.9438 55.7202 51.6906 55.6157 51.5037 55.4294L50.0808 54.0078C49.8943 53.821 49.7897 53.568 49.7897 53.3043C49.7897 53.0405 49.8943 52.7875 50.0808 52.6007L53.9939 48.6911C54.1803 48.5043 54.2849 48.2513 54.2849 47.9875C54.2849 47.7238 54.1803 47.4708 53.9939 47.284L50.0785 43.3743C49.8921 43.187 49.7875 42.9336 49.7875 42.6694C49.7875 42.4052 49.8921 42.1518 50.0785 41.9645L51.5044 40.5428C51.6914 40.3566 51.9446 40.252 52.2086 40.252C52.4726 40.252 52.7258 40.3566 52.9127 40.5428L56.8258 44.4525C57.0134 44.6388 57.267 44.7433 57.5315 44.7433C57.7959 44.7433 58.0496 44.6388 58.2371 44.4525L62.1502 40.5428C62.3372 40.3565 62.5904 40.252 62.8544 40.252C63.1184 40.252 63.3716 40.3565 63.5585 40.5428L64.9815 41.9645C65.1679 42.1512 65.2726 42.4042 65.2726 42.668C65.2726 42.9317 65.1679 43.1847 64.9815 43.3715L61.0683 47.2812C60.8819 47.4685 60.7772 47.722 60.7772 47.9862C60.7772 48.2504 60.8819 48.5039 61.0683 48.6912L64.9815 52.6009L64.9807 52.6007Z" fill="#CCD2D6"/>
</g>
<g opacity="0.5">
<path d="M16.0232 94.6861L24.4316 81.3037C24.5772 81.0714 24.7758 80.8768 25.0111 80.7359C25.2465 80.5951 25.5119 80.5119 25.7856 80.4933C26.0593 80.4746 26.3336 80.5211 26.5859 80.6287C26.8382 80.7364 27.0614 80.9023 27.2371 81.1127C29.2128 83.4861 33.0171 87.4223 37.7403 89.1921C41.0304 90.4236 44.5185 91.0423 48.0318 91.0177C48.3114 91.015 48.5875 91.0799 48.8366 91.2067C49.0857 91.3335 49.3005 91.5186 49.4627 91.7461C49.6249 91.9736 49.7298 92.2369 49.7683 92.5136C49.8068 92.7902 49.778 93.0721 49.6841 93.3353L44.6082 107.626C44.4762 107.997 44.2221 108.312 43.8875 108.52C43.5529 108.728 43.1576 108.816 42.7662 108.77C38.1981 108.238 23.4888 105.856 16.1408 96.7027C15.9134 96.4204 15.7797 96.0745 15.7581 95.7129C15.7365 95.3512 15.8281 94.9919 16.0202 94.6846L16.0232 94.6861Z" fill="#CCD2D6"/>
</g>
<path d="M42.9769 109.223C42.8905 109.223 42.8041 109.218 42.7182 109.208C38.2935 108.694 23.2745 106.291 15.798 96.9797C15.5134 96.6261 15.3462 96.1927 15.3194 95.7397C15.2927 95.2867 15.4078 94.8367 15.6488 94.4521L24.0572 81.0692C24.2398 80.7778 24.489 80.5337 24.7842 80.357C25.0795 80.1804 25.4125 80.0761 25.7558 80.0528C26.0992 80.0296 26.4432 80.0879 26.7597 80.2231C27.0761 80.3583 27.356 80.5665 27.5763 80.8307C29.4211 83.0455 33.2138 87.0242 37.8958 88.7793C41.135 89.9924 44.5694 90.6017 48.0285 90.577C48.3791 90.5736 48.7253 90.6548 49.0378 90.8136C49.3502 90.9725 49.6197 91.2043 49.8233 91.4895C50.0269 91.7746 50.1587 92.1047 50.2073 92.4516C50.256 92.7984 50.2201 93.1519 50.1029 93.482L45.029 107.773C44.8802 108.197 44.6026 108.565 44.2348 108.825C43.8671 109.085 43.4274 109.224 42.9769 109.223ZM16.3964 94.9207C16.2531 95.1505 16.1848 95.4191 16.2012 95.6894C16.2175 95.9597 16.3176 96.2182 16.4876 96.4291C23.7538 105.478 38.4803 107.829 42.8211 108.333C43.1134 108.368 43.409 108.303 43.6591 108.148C43.9093 107.993 44.099 107.757 44.197 107.48L49.2709 93.189C49.34 92.9938 49.3613 92.7849 49.333 92.5798C49.3048 92.3747 49.2278 92.1793 49.1085 92.01C48.9892 91.8406 48.831 91.7023 48.6473 91.6066C48.4635 91.5108 48.2595 91.4604 48.0523 91.4595H48.0374C44.4695 91.4836 40.9273 90.8554 37.5857 89.6061C32.7127 87.7805 28.7981 83.6783 26.8973 81.3961C26.7662 81.239 26.5997 81.1152 26.4115 81.0348C26.2232 80.9545 26.0186 80.9198 25.8143 80.9337C25.6101 80.9476 25.4121 81.0096 25.2365 81.1148C25.0609 81.2199 24.9127 81.3651 24.8041 81.5385L16.3964 94.9207Z" fill="#CCD2D6"/>
<path d="M22.8011 98.1226C22.7231 98.1232 22.6464 98.1026 22.5792 98.063C22.5292 98.0337 22.4854 97.9948 22.4505 97.9486C22.4155 97.9024 22.39 97.8498 22.3754 97.7937C22.3608 97.7376 22.3574 97.6793 22.3653 97.6219C22.3733 97.5645 22.3926 97.5093 22.4219 97.4593L28.6312 86.8715C28.6606 86.8216 28.6995 86.778 28.7457 86.7432C28.7919 86.7083 28.8445 86.6829 28.9006 86.6684C28.9566 86.6539 29.015 86.6505 29.0723 86.6585C29.1296 86.6665 29.1848 86.6858 29.2347 86.7151C29.2846 86.7444 29.3283 86.7833 29.3631 86.8294C29.398 86.8756 29.4235 86.9282 29.438 86.9842C29.4525 87.0402 29.4559 87.0985 29.4479 87.1557C29.4399 87.213 29.4206 87.2682 29.3913 87.318L23.1819 97.9059C23.143 97.9721 23.0873 98.027 23.0205 98.0651C22.9538 98.1033 22.8782 98.1233 22.8013 98.1232L22.8011 98.1226Z" fill="#CCD2D6"/>
<path d="M29.0104 97.5837C28.9487 97.5839 28.8877 97.5709 28.8314 97.5456C28.7784 97.5221 28.7306 97.4885 28.6907 97.4465C28.6508 97.4046 28.6196 97.3552 28.5988 97.3012C28.578 97.2472 28.568 97.1896 28.5695 97.1318C28.571 97.0739 28.584 97.0169 28.6075 96.9641L31.5872 90.2624C31.6359 90.1574 31.7239 90.0757 31.8323 90.035C31.9406 89.9943 32.0607 89.9978 32.1665 90.0448C32.2723 90.0918 32.3554 90.1785 32.3978 90.2861C32.4402 90.3938 32.4385 90.5138 32.3931 90.6202L29.4126 97.3216C29.3782 97.3995 29.3219 97.4658 29.2505 97.5123C29.1791 97.5588 29.0957 97.5836 29.0104 97.5837Z" fill="#CCD2D6"/>
<g opacity="0.25">
<path d="M39.346 116.022C39.2748 115.651 39.3267 115.268 39.4937 114.929C39.6607 114.591 39.9337 114.316 40.2713 114.146C42.4396 113.065 47.0407 110.335 49.2985 105.751C50.595 103.118 51.3697 101.348 51.8313 100.186C51.9253 99.9488 52.0705 99.735 52.2568 99.5601C52.443 99.3851 52.6655 99.2534 52.9086 99.1743C53.1516 99.0951 53.4091 99.0706 53.6627 99.1023C53.9163 99.1341 54.1598 99.2214 54.3758 99.3579L67.1691 107.436C67.5131 107.653 67.7699 107.984 67.8949 108.371C68.0198 108.758 68.0049 109.176 67.8527 109.553C66.7693 112.232 63.7488 118.216 57.2671 121.968C51.1241 125.525 45.6336 126.527 43.0258 126.81C42.5919 126.857 42.1564 126.738 41.8061 126.478C41.4558 126.218 41.2163 125.836 41.1353 125.408L39.346 116.022Z" fill="#CCD2D6"/>
</g>
<path d="M42.8432 127.262C42.3368 127.259 41.8468 127.082 41.4567 126.759C41.0665 126.436 40.8002 125.989 40.703 125.492L38.914 116.106C38.8258 115.641 38.8913 115.16 39.1005 114.735C39.3097 114.311 39.6513 113.966 40.0738 113.753C41.9849 112.799 46.6682 110.093 48.9011 105.557C50.0021 103.323 50.8489 101.461 51.4207 100.025C51.5387 99.727 51.7209 99.4591 51.9544 99.2399C52.1879 99.0207 52.4669 98.8556 52.7715 98.7565C53.0761 98.6573 53.3988 98.6265 53.7168 98.6662C54.0347 98.706 54.3399 98.8152 54.6107 98.9863L67.4041 107.064C67.8358 107.336 68.1581 107.751 68.3148 108.237C68.4714 108.722 68.4524 109.247 68.2611 109.72C67.2453 112.23 64.1643 118.485 57.4875 122.352C51.3194 125.924 45.8084 126.953 43.0728 127.25C42.9961 127.258 42.919 127.262 42.8419 127.262L42.8432 127.262ZM53.4494 99.5295C53.189 99.5292 52.9346 99.6073 52.7194 99.7536C52.5041 99.8998 52.3379 100.108 52.2425 100.35C51.6634 101.808 50.8063 103.691 49.695 105.945C47.4282 110.55 42.9419 113.306 40.4693 114.54C40.2181 114.667 40.015 114.872 39.8909 115.125C39.7668 115.377 39.7283 115.663 39.7813 115.94L41.5701 125.325C41.6318 125.644 41.8107 125.929 42.0716 126.122C42.3325 126.316 42.6565 126.405 42.9799 126.372C45.6465 126.083 51.0193 125.079 57.0478 121.587C63.4878 117.858 66.4642 111.813 67.4466 109.388C67.5607 109.107 67.5721 108.795 67.4788 108.506C67.3856 108.217 67.1936 107.97 66.9365 107.808L54.143 99.7311C53.9358 99.6001 53.6957 99.5303 53.4506 99.5299L53.4494 99.5295Z" fill="#CCD2D6"/>
<g opacity="0.25">
<path d="M99.5425 70.3827C99.2526 70.2315 98.9996 70.0181 98.8019 69.7578C98.6041 69.4975 98.4663 69.1967 98.3985 68.877C98.3306 68.5573 98.3344 68.2266 98.4094 67.9085C98.4844 67.5904 98.6289 67.2928 98.8325 67.037C101.362 63.8514 105.774 57.3334 106.256 50.1058C106.738 42.8827 105.708 39.5091 105.067 38.1564C105.03 38.0799 105.014 37.995 105.02 37.9103C105.027 37.8255 105.055 37.744 105.104 37.674C105.152 37.6041 105.218 37.5481 105.295 37.5118C105.372 37.4756 105.457 37.4603 105.542 37.4676L125.154 39.1992C125.256 39.2081 125.352 39.249 125.429 39.316C125.506 39.383 125.559 39.4726 125.582 39.572C126.045 41.6649 128.21 52.9636 123.558 63.3121C119.077 73.2788 114.67 76.7067 113.599 77.4307C113.527 77.4796 113.443 77.5081 113.356 77.513C113.27 77.5179 113.183 77.4991 113.106 77.4586L99.544 70.3794L99.5425 70.3827Z" fill="#CCD2D6"/>
</g>
<path d="M113.28 77.8579C113.041 77.8579 112.805 77.8005 112.593 77.6905L99.9439 71.0887C99.5257 70.8701 99.1605 70.5626 98.8741 70.1879C98.5876 69.8131 98.3868 69.3802 98.2858 68.9196C98.1848 68.459 98.1861 67.9819 98.2895 67.5218C98.3929 67.0618 98.5959 66.6299 98.8843 66.2567C101.278 63.146 105.361 56.9055 105.817 50.0775C106.215 44.0986 105.577 40.8026 104.972 39.0901C104.889 38.855 104.866 38.6028 104.906 38.3566C104.946 38.1105 105.047 37.8783 105.2 37.6813C105.353 37.4843 105.553 37.3288 105.781 37.229C106.01 37.1292 106.26 37.0884 106.509 37.1102L124.774 38.7229C125.095 38.7495 125.397 38.8795 125.637 39.0934C125.877 39.3072 126.04 39.5932 126.103 39.9081C126.72 42.9483 128.393 53.6316 123.959 63.4939C119.821 72.6967 115.739 76.3979 114.177 77.561C113.917 77.7531 113.603 77.8566 113.28 77.8563L113.28 77.8579ZM106.374 37.9856C106.277 37.9859 106.181 38.0095 106.095 38.0543C106.009 38.0991 105.935 38.1638 105.879 38.243C105.823 38.3223 105.787 38.4137 105.774 38.5097C105.761 38.6057 105.771 38.7035 105.803 38.7949C106.437 40.5853 107.106 44.0072 106.697 50.1347C106.227 57.1947 102.039 63.6012 99.5836 66.7913C99.3736 67.0626 99.2257 67.3766 99.1503 67.7112C99.0749 68.0458 99.0738 68.3928 99.1471 68.7279C99.2204 69.0629 99.3663 69.3779 99.5745 69.6505C99.7828 69.9231 100.048 70.1469 100.352 70.3059L113.002 76.9078C113.104 76.9612 113.219 76.9844 113.334 76.9748C113.449 76.9652 113.558 76.9231 113.65 76.8536C115.158 75.7315 119.102 72.1464 123.155 63.1316C127.48 53.51 125.844 43.0573 125.238 40.0818C125.212 39.9533 125.145 39.8368 125.048 39.7496C124.95 39.6624 124.826 39.6094 124.696 39.5985L106.43 37.9859C106.411 37.9844 106.392 37.9829 106.372 37.9829L106.374 37.9856Z" fill="#CCD2D6"/>
<path d="M121.604 44.3603C121.589 44.3608 121.574 44.3598 121.56 44.3573L108.397 43.034C108.339 43.0288 108.283 43.0122 108.231 42.985C108.179 42.9578 108.134 42.9206 108.096 42.8756C108.059 42.8306 108.031 42.7787 108.014 42.7228C107.998 42.667 107.992 42.6083 107.998 42.5503C108.004 42.4923 108.021 42.436 108.049 42.3847C108.077 42.3334 108.115 42.2882 108.16 42.2516C108.206 42.215 108.258 42.1879 108.314 42.1717C108.37 42.1554 108.429 42.1505 108.487 42.1572L121.649 43.4804C121.762 43.4922 121.865 43.5465 121.939 43.6323C122.012 43.718 122.05 43.8287 122.044 43.9415C122.038 44.0542 121.99 44.1605 121.908 44.2384C121.826 44.3163 121.717 44.3598 121.604 44.3601V44.3603Z" fill="#CCD2D6"/>
<path d="M116.327 48.9087C116.299 48.9085 116.272 48.906 116.245 48.9014L109.518 47.6324C109.46 47.623 109.404 47.6021 109.354 47.5709C109.305 47.5397 109.262 47.4989 109.228 47.4508C109.194 47.4027 109.17 47.3483 109.158 47.2909C109.145 47.2335 109.145 47.1742 109.156 47.1164C109.166 47.0587 109.189 47.0038 109.221 46.9548C109.254 46.9058 109.296 46.8639 109.345 46.8313C109.394 46.7988 109.449 46.7765 109.506 46.7655C109.564 46.7546 109.624 46.7553 109.681 46.7676L116.408 48.0366C116.515 48.0569 116.612 48.1166 116.678 48.2041C116.744 48.2916 116.775 48.4005 116.765 48.5096C116.755 48.6187 116.704 48.7201 116.623 48.7939C116.542 48.8678 116.436 48.9088 116.327 48.909L116.327 48.9087Z" fill="#CCD2D6"/>
<path d="M115.395 61.4803C115.351 61.4808 115.306 61.4738 115.264 61.4597L107.566 59.0613C107.456 59.0248 107.365 58.9468 107.312 58.844C107.26 58.7412 107.25 58.6218 107.284 58.5116C107.319 58.4013 107.395 58.309 107.497 58.2545C107.599 58.1999 107.718 58.1875 107.829 58.2198L115.527 60.6182C115.628 60.6498 115.714 60.7162 115.77 60.8055C115.825 60.8948 115.847 61.0012 115.831 61.1053C115.816 61.2094 115.763 61.3044 115.683 61.3732C115.604 61.4419 115.502 61.4799 115.396 61.4803H115.395Z" fill="#CCD2D6"/>
<path d="M24.8651 80.9271C25.1608 80.6923 25.5274 80.5645 25.9051 80.5645C26.2828 80.5645 26.6494 80.6923 26.9451 80.9271H24.8666H24.8651Z" fill="#CCD2D6"/>
<path d="M25.9073 80.6361C26.1893 80.6354 26.4664 80.7099 26.7099 80.852H25.1018C25.3468 80.7095 25.6254 80.635 25.9088 80.6361M25.9088 80.4893C25.6798 80.4889 25.4529 80.5337 25.2413 80.6212C25.0296 80.7086 24.8373 80.837 24.6754 80.9989H27.1363C26.9755 80.8368 26.784 80.7082 26.5731 80.6207C26.3621 80.5332 26.1358 80.4885 25.9073 80.4893H25.9088Z" fill="#CCD2D6"/>
</svg>
